<svg width="20" height="20" viewBox="0 0 20 20"  xmlns="http://www.w3.org/2000/svg">
<path fill-rule="evenodd" clip-rule="evenodd" d="M8.91651 4.21583e-07H11.0835C12.9684 -1.81831e-05 14.4613 -2.75429e-05 15.6297 0.142456C16.8322 0.289079 17.8055 0.598028 18.5731 1.29418C19.3406 1.99034 19.6812 2.87308 19.843 3.9637C20 5.02343 20 6.37752 20 8.08706V11.9129C20 13.6225 20 14.9766 19.843 16.0363C19.6812 17.1269 19.3406 18.0097 18.5731 18.7059C17.8055 19.402 16.8322 19.7109 15.6297 19.8576C14.4613 20 12.9684 20 11.0835 20H8.91651C7.03162 20 5.53866 20 4.37024 19.8576C3.16775 19.7109 2.19447 19.402 1.42691 18.7059C0.659365 18.0097 0.318729 17.1269 0.157067 16.0363C-3.02455e-05 14.9766 -2.0048e-05 13.6225 4.64776e-07 11.9129V8.08705C-2.0048e-05 6.37751 -3.02455e-05 5.02343 0.157067 3.9637C0.318729 2.87308 0.659365 1.99034 1.42691 1.29418C2.19447 0.598028 3.16775 0.289079 4.37024 0.142456C5.53866 -2.75429e-05 7.03161 -1.81831e-05 8.91651 4.21583e-07ZM4.57523 1.52536C3.54334 1.65118 2.94883 1.88715 2.51477 2.28084C2.08071 2.67452 1.82053 3.21373 1.68181 4.14963C1.54009 5.10559 1.53846 6.36575 1.53846 8.13954V11.8605C1.53846 13.6342 1.54009 14.8944 1.68181 15.8504C1.82053 16.7862 2.08071 17.3255 2.51477 17.7192C2.94883 18.1128 3.54334 18.3488 4.57523 18.4746C5.62924 18.6032 7.01865 18.6047 8.97436 18.6047H11.0256C12.9813 18.6047 14.3708 18.6032 15.4248 18.4746C16.4566 18.3488 17.0512 18.1128 17.4852 17.7192C17.9193 17.3255 18.1795 16.7862 18.3182 15.8504C18.4599 14.8944 18.4615 13.6342 18.4615 11.8605V8.13954C18.4615 6.36575 18.4599 5.10559 18.3182 4.14963C18.1795 3.21373 17.9193 2.67452 17.4852 2.28084C17.0512 1.88715 16.4566 1.65118 15.4248 1.52536C14.3708 1.39683 12.9813 1.39535 11.0256 1.39535H8.97436C7.01865 1.39535 5.62924 1.39683 4.57523 1.52536ZM5.12821 6.27907C5.12821 5.89376 5.47261 5.5814 5.89744 5.5814H14.1026C14.5274 5.5814 14.8718 5.89376 14.8718 6.27907C14.8718 6.66438 14.5274 6.97674 14.1026 6.97674H5.89744C5.47261 6.97674 5.12821 6.66438 5.12821 6.27907ZM5.12821 10C5.12821 9.6147 5.47261 9.30233 5.89744 9.30233H14.1026C14.5274 9.30233 14.8718 9.6147 14.8718 10C14.8718 10.3853 14.5274 10.6977 14.1026 10.6977H5.89744C5.47261 10.6977 5.12821 10.3853 5.12821 10ZM5.12821 13.7209C5.12821 13.3356 5.47261 13.0233 5.89744 13.0233H11.0256C11.4505 13.0233 11.7949 13.3356 11.7949 13.7209C11.7949 14.1062 11.4505 14.4186 11.0256 14.4186H5.89744C5.47261 14.4186 5.12821 14.1062 5.12821 13.7209Z"/>
</svg>
