<svg width="20" height="20" viewBox="0 0 20 20" fill="#000000" xmlns="http://www.w3.org/2000/svg">
<path fill-rule="evenodd" clip-rule="evenodd" d="M9.08595 1.44332C4.76346 1.89973 1.39535 5.55654 1.39535 10C1.39535 14.7522 5.24779 18.6047 10 18.6047C14.4434 18.6047 18.1003 15.2366 18.5567 10.914C17.3225 12.4808 15.4071 13.4884 13.2558 13.4884C9.53107 13.4884 6.51163 10.4689 6.51163 6.74419C6.51163 4.59291 7.51921 2.67749 9.08595 1.44332ZM0 10C0 4.47715 4.47715 0 10 0C10.6666 0 11.0004 0.531405 11.0575 0.95467C11.1126 1.36184 10.962 1.87967 10.494 2.16248C8.94205 3.10028 7.90698 4.80169 7.90698 6.74419C7.90698 9.69823 10.3018 12.093 13.2558 12.093C15.1983 12.093 16.8997 11.058 17.8375 9.50605C18.1203 9.03795 18.6381 8.88744 19.0453 8.94251C19.4686 8.99963 20 9.3334 20 10C20 15.5229 15.5229 20 10 20C4.47715 20 0 15.5229 0 10Z" fill="#000000"/>
</svg>
