<svg width="20" height="20" viewBox="0 0 20 20" xmlns="http://www.w3.org/2000/svg">
<g>
<path d="M9.73559 6.03507L3.33385 11.3076V16.9983C3.33385 17.1456 3.39238 17.2869 3.49657 17.3911C3.60076 17.4953 3.74207 17.5538 3.88941 17.5538L7.78038 17.5438C7.92724 17.543 8.06784 17.4842 8.17142 17.3801C8.27501 17.2759 8.33316 17.1351 8.33316 16.9882V13.6649C8.33316 13.5176 8.39169 13.3763 8.49588 13.2721C8.60006 13.1679 8.74137 13.1094 8.88871 13.1094H11.1109C11.2583 13.1094 11.3996 13.1679 11.5038 13.2721C11.608 13.3763 11.6665 13.5176 11.6665 13.6649V16.9858C11.6663 17.0589 11.6805 17.1313 11.7083 17.1989C11.7361 17.2665 11.777 17.328 11.8286 17.3797C11.8802 17.4315 11.9415 17.4726 12.009 17.5006C12.0766 17.5286 12.1489 17.5431 12.222 17.5431L16.1116 17.5538C16.259 17.5538 16.4003 17.4953 16.5045 17.3911C16.6087 17.2869 16.6672 17.1456 16.6672 16.9983V11.3038L10.2668 6.03507C10.1916 5.97442 10.0979 5.94134 10.0012 5.94134C9.90457 5.94134 9.81083 5.97442 9.73559 6.03507ZM19.8477 9.61875L16.945 7.22604V2.41667C16.945 2.30616 16.9011 2.20018 16.8229 2.12204C16.7448 2.0439 16.6388 2 16.5283 2H14.5839C14.4733 2 14.3674 2.0439 14.2892 2.12204C14.2111 2.20018 14.1672 2.30616 14.1672 2.41667V4.93785L11.0585 2.38021C10.7602 2.13471 10.3858 2.00049 9.99948 2.00049C9.61313 2.00049 9.23878 2.13471 8.94045 2.38021L0.151215 9.61875C0.109023 9.65362 0.0741159 9.69647 0.0484882 9.74484C0.0228604 9.7932 0.00701415 9.84615 0.00185491 9.90064C-0.00330432 9.95514 0.00232453 10.0101 0.0184199 10.0624C0.0345152 10.1148 0.0607616 10.1634 0.0956593 10.2056L0.981076 11.2819C1.01588 11.3243 1.05869 11.3593 1.10705 11.3851C1.15541 11.4108 1.20837 11.4268 1.26291 11.432C1.31745 11.4373 1.37249 11.4317 1.42488 11.4157C1.47727 11.3997 1.52598 11.3734 1.56823 11.3385L9.73559 4.61146C9.81083 4.55081 9.90457 4.51773 10.0012 4.51773C10.0979 4.51773 10.1916 4.55081 10.2668 4.61146L18.4345 11.3385C18.4767 11.3734 18.5254 11.3997 18.5777 11.4158C18.63 11.4319 18.685 11.4375 18.7395 11.4323C18.794 11.4272 18.8469 11.4113 18.8953 11.3857C18.9436 11.3601 18.9865 11.3252 19.0214 11.283L19.9068 10.2066C19.9416 10.1642 19.9678 10.1153 19.9837 10.0628C19.9996 10.0102 20.0049 9.95503 19.9995 9.9004C19.994 9.84578 19.9777 9.79277 19.9517 9.74444C19.9257 9.6961 19.8903 9.65339 19.8477 9.61875Z" />
</g>
<defs>
<clipPath id="clip0_704_187">
<rect width="20" height="20" />
</clipPath>
</defs>
</svg>
