<svg width="20" height="20" viewBox="0 0 20 20" xmlns="http://www.w3.org/2000/svg">
<path fill-rule="evenodd" clip-rule="evenodd" d="M13.9535 1.46341V3.11174L15.8139 4.67271V1.46341H13.9535ZM17.2093 5.84344V1.21951C17.2093 0.54599 16.6887 0 16.0465 0H13.7209C13.0788 0 12.5581 0.54599 12.5581 1.21951V1.94101L12.1791 1.62304C10.9052 0.554107 9.09486 0.554107 7.82084 1.62304L0.261868 7.96517C-0.0390153 8.21766 -0.0877966 8.67815 0.15291 8.99366C0.393607 9.30927 0.832648 9.36039 1.13353 9.108L1.86049 8.49805V18.5366H0.6977C0.312379 18.5366 2.65261e-05 18.8642 2.65261e-05 19.2683C2.65261e-05 19.6724 0.312379 20 0.6977 20H19.3023C19.6876 20 20 19.6724 20 19.2683C20 18.8642 19.6876 18.5366 19.3023 18.5366H18.1395V8.49805L18.8665 9.108C19.1674 9.36039 19.6064 9.30927 19.8471 8.99366C20.0878 8.67815 20.039 8.21766 19.7381 7.96517L17.2093 5.84344ZM16.7442 7.32729L11.3075 2.76578C10.543 2.12442 9.45691 2.12442 8.69254 2.76578L3.25583 7.32729V18.5366H6.51164V14.342C6.5116 13.6935 6.51158 13.1345 6.56894 12.687C6.63043 12.2073 6.76909 11.7476 7.12467 11.3746C7.48025 11.0018 7.91863 10.8563 8.37598 10.7918C8.80268 10.7316 9.33561 10.7317 9.95412 10.7317H10.0459C10.6644 10.7317 11.1973 10.7316 11.6241 10.7918C12.0814 10.8563 12.5198 11.0018 12.8753 11.3746C13.2309 11.7476 13.3696 12.2073 13.431 12.687C13.4884 13.1345 13.4884 13.6935 13.4883 14.342V18.5366H16.7442V7.32729ZM12.093 18.5366V14.3902C12.093 13.6797 12.0915 13.2204 12.0482 12.882C12.0075 12.5646 11.9418 12.4652 11.8887 12.4095C11.8356 12.3538 11.7407 12.2849 11.4381 12.2421C11.1154 12.1967 10.6775 12.1951 9.99998 12.1951C9.32249 12.1951 8.88454 12.1967 8.56194 12.2421C8.25933 12.2849 8.16445 12.3538 8.11133 12.4095C8.05822 12.4652 7.99253 12.5646 7.95185 12.882C7.90847 13.2204 7.90699 13.6797 7.90699 14.3902V18.5366H12.093ZM9.99998 5.85366C9.35784 5.85366 8.83719 6.39965 8.83719 7.07317C8.83719 7.74673 9.35784 8.29268 9.99998 8.29268C10.6422 8.29268 11.1628 7.74673 11.1628 7.07317C11.1628 6.39965 10.6422 5.85366 9.99998 5.85366ZM7.44187 7.07317C7.44187 5.59143 8.58714 4.39024 9.99998 4.39024C11.4128 4.39024 12.5581 5.59143 12.5581 7.07317C12.5581 8.55493 11.4128 9.7561 9.99998 9.7561C8.58714 9.7561 7.44187 8.55493 7.44187 7.07317Z" />
</svg>
